{
  "accessors": [
    {
      "bufferView": 2,
      "componentType": 5126,
      "count": 65532,
      "max": [
        0.3927639424800873,
        0.9573140740394592,
        0.5624579191207886
      ],
      "min": [
        -0.393871933221817,
        -0.9998959302902222,
        -0.5669299364089966
      ],
      "type": "VEC3"
    },
    {
      "bufferView": 2,
      "byteOffset": 786384,
      "componentType": 5126,
      "count": 65532,
      "max": [
        0.9999939203262329,
        0.999995768070221,
        0.9999961256980896
      ],
      "min": [
        -0.9999822378158569,
        -0.9999972581863403,
        -0.999999463558197
      ],
      "type": "VEC3"
    },
    {
      "bufferView": 1,
      "componentType": 5126,
      "count": 65532,
      "max": [
        0.9994458556175232,
        1.0
      ],
      "min": [
        -4.9992049611091716e-08,
        0.0016203522682189941
      ],
      "type": "VEC2"
    },
    {
      "bufferView": 1,
      "byteOffset": 524256,
      "componentType": 5126,
      "count": 65532,
      "max": [
        0.9994458556175232,
        1.0
      ],
      "min": [
        -4.9992049611091716e-08,
        0.0016203522682189941
      ],
      "type": "VEC2"
    },
    {
      "bufferView": 1,
      "byteOffset": 1048512,
      "componentType": 5126,
      "count": 65532,
      "max": [
        0.9994458556175232,
        1.0
      ],
      "min": [
        -4.9992049611091716e-08,
        0.0016203522682189941
      ],
      "type": "VEC2"
    },
    {
      "bufferView": 1,
      "byteOffset": 1572768,
      "componentType": 5126,
      "count": 65532,
      "max": [
        0.9994458556175232,
        1.0
      ],
      "min": [
        -4.9992049611091716e-08,
        0.0016203522682189941
      ],
      "type": "VEC2"
    },
    {
      "bufferView": 0,
      "componentType": 5125,
      "count": 317106,
      "type": "SCALAR"
    },
    {
      "bufferView": 2,
      "byteOffset": 1572768,
      "componentType": 5126,
      "count": 65534,
      "max": [
        0.393871933221817,
        0.7742109894752502,
        0.5669299364089966
      ],
      "min": [
        -0.3908429443836212,
        -0.9989160299301147,
        -0.5415699481964111
      ],
      "type": "VEC3"
    },
    {
      "bufferView": 2,
      "byteOffset": 2359176,
      "componentType": 5126,
      "count": 65534,
      "max": [
        0.9999985694885254,
        0.999991774559021,
        0.9999482035636902
      ],
      "min": [
        -0.9999799728393555,
        -0.9999610185623169,
        -0.9999986886978149
      ],
      "type": "VEC3"
    },
    {
      "bufferView": 1,
      "byteOffset": 2097024,
      "componentType": 5126,
      "count": 65534,
      "max": [
        0.9994992017745972,
        1.0
      ],
      "min": [
        7.344676866694044e-09,
        1.8835067749023438e-05
      ],
      "type": "VEC2"
    },
    {
      "bufferView": 1,
      "byteOffset": 2621296,
      "componentType": 5126,
      "count": 65534,
      "max": [
        0.9994992017745972,
        1.0
      ],
      "min": [
        7.344676866694044e-09,
        1.8835067749023438e-05
      ],
      "type": "VEC2"
    },
    {
      "bufferView": 1,
      "byteOffset": 3145568,
      "componentType": 5126,
      "count": 65534,
      "max": [
        0.9994992017745972,
        1.0
      ],
      "min": [
        7.344676866694044e-09,
        1.8835067749023438e-05
      ],
      "type": "VEC2"
    },
    {
      "bufferView": 1,
      "byteOffset": 3669840,
      "componentType": 5126,
      "count": 65534,
      "max": [
        0.9994992017745972,
        1.0
      ],
      "min": [
        7.344676866694044e-09,
        1.8835067749023438e-05
      ],
      "type": "VEC2"
    },
    {
      "bufferView": 0,
      "byteOffset": 1268424,
      "componentType": 5125,
      "count": 282555,
      "type": "SCALAR"
    },
    {
      "bufferView": 2,
      "byteOffset": 3145584,
      "componentType": 5126,
      "count": 65532,
      "max": [
        0.35548797249794006,
        1.0,
        0.23572103679180145
      ],
      "min": [
        -0.36171096563339233,
        -1.0,
        -0.5451170802116394
      ],
      "type": "VEC3"
    },
    {
      "bufferView": 2,
      "byteOffset": 3931968,
      "componentType": 5126,
      "count": 65532,
      "max": [
        0.9999915361404419,
        0.9999833106994629,
        0.9999962449073792
      ],
      "min": [
        -0.9999996423721313,
        -0.9999834299087524,
        -0.9999819993972778
      ],
      "type": "VEC3"
    },
    {
      "bufferView": 1,
      "byteOffset": 4194112,
      "componentType": 5126,
      "count": 65532,
      "max": [
        0.9995457530021667,
        1.0
      ],
      "min": [
        5.781776390989535e-09,
        0.0009063482284545898
      ],
      "type": "VEC2"
    },
    {
      "bufferView": 1,
      "byteOffset": 4718368,
      "componentType": 5126,
      "count": 65532,
      "max": [
        0.9995457530021667,
        1.0
      ],
      "min": [
        5.781776390989535e-09,
        0.0009063482284545898
      ],
      "type": "VEC2"
    },
    {
      "bufferView": 1,
      "byteOffset": 5242624,
      "componentType": 5126,
      "count": 65532,
      "max": [
        0.9995457530021667,
        1.0
      ],
      "min": [
        5.781776390989535e-09,
        0.0009063482284545898
      ],
      "type": "VEC2"
    },
    {
      "bufferView": 1,
      "byteOffset": 5766880,
      "componentType": 5126,
      "count": 65532,
      "max": [
        0.9995457530021667,
        1.0
      ],
      "min": [
        5.781776390989535e-09,
        0.0009063482284545898
      ],
      "type": "VEC2"
    },
    {
      "bufferView": 0,
      "byteOffset": 2398644,
      "componentType": 5125,
      "count": 283464,
      "type": "SCALAR"
    },
    {
      "bufferView": 2,
      "byteOffset": 4718352,
      "componentType": 5126,
      "count": 65532,
      "max": [
        0.3253779709339142,
        0.9688610434532166,
        -0.316008985042572
      ],
      "min": [
        -0.3263089656829834,
        -0.9981509447097778,
        -0.5465860366821289
      ],
      "type": "VEC3"
    },
    {
      "bufferView": 2,
      "byteOffset": 5504736,
      "componentType": 5126,
      "count": 65532,
      "max": [
        0.9999874234199524,
        0.9990043640136719,
        0.9999926686286926
      ],
      "min": [
        -0.9999849796295166,
        -0.9999955892562866,
        -0.9999986886978149
      ],
      "type": "VEC3"
    },
    {
      "bufferView": 1,
      "byteOffset": 6291136,
      "componentType": 5126,
      "count": 65532,
      "max": [
        0.999584972858429,
        1.0
      ],
      "min": [
        0.0009826443856582046,
        0.0
      ],
      "type": "VEC2"
    },
    {
      "bufferView": 1,
      "byteOffset": 6815392,
      "componentType": 5126,
      "count": 65532,
      "max": [
        0.999584972858429,
        1.0
      ],
      "min": [
        0.0009826443856582046,
        0.0
      ],
      "type": "VEC2"
    },
    {
      "bufferView": 1,
      "byteOffset": 7339648,
      "componentType": 5126,
      "count": 65532,
      "max": [
        0.999584972858429,
        1.0
      ],
      "min": [
        0.0009826443856582046,
        0.0
      ],
      "type": "VEC2"
    },
    {
      "bufferView": 1,
      "byteOffset": 7863904,
      "componentType": 5126,
      "count": 65532,
      "max": [
        0.999584972858429,
        1.0
      ],
      "min": [
        0.0009826443856582046,
        0.0
      ],
      "type": "VEC2"
    },
    {
      "bufferView": 0,
      "byteOffset": 3532500,
      "componentType": 5125,
      "count": 206169,
      "type": "SCALAR"
    },
    {
      "bufferView": 2,
      "byteOffset": 6291120,
      "componentType": 5126,
      "count": 65532,
      "max": [
        0.3256259560585022,
        0.7781670689582825,
        -0.4040989875793457
      ],
      "min": [
        -0.3259439766407013,
        -0.9999579191207886,
        -0.5656309127807617
      ],
      "type": "VEC3"
    },
    {
      "bufferView": 2,
      "byteOffset": 7077504,
      "componentType": 5126,
      "count": 65532,
      "max": [
        0.9999717473983765,
        0.9998846054077148,
        0.9999920725822449
      ],
      "min": [
        -0.9999756813049316,
        -0.999691367149353,
        -0.999999463558197
      ],
      "type": "VEC3"
    },
    {
      "bufferView": 1,
      "byteOffset": 8388160,
      "componentType": 5126,
      "count": 65532,
      "max": [
        0.9995905160903931,
        1.0
      ],
      "min": [
        2.111202235255405e-08,
        5.173683166503906e-05
      ],
      "type": "VEC2"
    },
    {
      "bufferView": 1,
      "byteOffset": 8912416,
      "componentType": 5126,
      "count": 65532,
      "max": [
        0.9995905160903931,
        1.0
      ],
      "min": [
        2.111202235255405e-08,
        5.173683166503906e-05
      ],
      "type": "VEC2"
    },
    {
      "bufferView": 1,
      "byteOffset": 9436672,
      "componentType": 5126,
      "count": 65532,
      "max": [
        0.9995905160903931,
        1.0
      ],
      "min": [
        2.111202235255405e-08,
        5.173683166503906e-05
      ],
      "type": "VEC2"
    },
    {
      "bufferView": 1,
      "byteOffset": 9960928,
      "componentType": 5126,
      "count": 65532,
      "max": [
        0.9995905160903931,
        1.0
      ],
      "min": [
        2.111202235255405e-08,
        5.173683166503906e-05
      ],
      "type": "VEC2"
    },
    {
      "bufferView": 0,
      "byteOffset": 4357176,
      "componentType": 5125,
      "count": 183840,
      "type": "SCALAR"
    },
    {
      "bufferView": 2,
      "byteOffset": 7863888,
      "componentType": 5126,
      "count": 65534,
      "max": [
        0.32499897480010986,
        0.9996820092201233,
        0.16390402615070343
      ],
      "min": [
        -0.32504597306251526,
        -0.5754379630088806,
        -0.4233149290084839
      ],
      "type": "VEC3"
    },
    {
      "bufferView": 2,
      "byteOffset": 8650296,
      "componentType": 5126,
      "count": 65534,
      "max": [
        0.9999808073043823,
        0.9999966025352478,
        0.9999684691429138
      ],
      "min": [
        -0.9999668598175049,
        -0.9998880624771118,
        -0.9996073842048645
      ],
      "type": "VEC3"
    },
    {
      "bufferView": 1,
      "byteOffset": 10485184,
      "componentType": 5126,
      "count": 65534,
      "max": [
        0.9995777010917664,
        1.0
      ],
      "min": [
        8.654692962295485e-09,
        0.00025343894958496094
      ],
      "type": "VEC2"
    },
    {
      "bufferView": 1,
      "byteOffset": 11009456,
      "componentType": 5126,
      "count": 65534,
      "max": [
        0.9995777010917664,
        1.0
      ],
      "min": [
        8.654692962295485e-09,
        0.00025343894958496094
      ],
      "type": "VEC2"
    },
    {
      "bufferView": 1,
      "byteOffset": 11533728,
      "componentType": 5126,
      "count": 65534,
      "max": [
        0.9995777010917664,
        1.0
      ],
      "min": [
        8.654692962295485e-09,
        0.00025343894958496094
      ],
      "type": "VEC2"
    },
    {
      "bufferView": 1,
      "byteOffset": 12058000,
      "componentType": 5126,
      "count": 65534,
      "max": [
        0.9995777010917664,
        1.0
      ],
      "min": [
        8.654692962295485e-09,
        0.00025343894958496094
      ],
      "type": "VEC2"
    },
    {
      "bufferView": 0,
      "byteOffset": 5092536,
      "componentType": 5125,
      "count": 235974,
      "type": "SCALAR"
    },
    {
      "bufferView": 2,
      "byteOffset": 9436704,
      "componentType": 5126,
      "count": 65532,
      "max": [
        0.3159959614276886,
        0.9734600186347961,
        0.09826605767011642
      ],
      "min": [
        -0.3188439607620239,
        -0.35854101181030273,
        -0.1458238661289215
      ],
      "type": "VEC3"
    },
    {
      "bufferView": 2,
      "byteOffset": 10223088,
      "componentType": 5126,
      "count": 65532,
      "max": [
        0.9997750520706177,
        0.9999966025352478,
        0.999987781047821
      ],
      "min": [
        -0.9999974966049194,
        -0.9999271035194397,
        -0.9999932050704956
      ],
      "type": "VEC3"
    },
    {
      "bufferView": 1,
      "byteOffset": 12582272,
      "componentType": 5126,
      "count": 65532,
      "max": [
        0.9994727969169617,
        1.0
      ],
      "min": [
        0.0005084266886115074,
        0.0006191134452819824
      ],
      "type": "VEC2"
    },
    {
      "bufferView": 1,
      "byteOffset": 13106528,
      "componentType": 5126,
      "count": 65532,
      "max": [
        0.9994727969169617,
        1.0
      ],
      "min": [
        0.0005084266886115074,
        0.0006191134452819824
      ],
      "type": "VEC2"
    },
    {
      "bufferView": 1,
      "byteOffset": 13630784,
      "componentType": 5126,
      "count": 65532,
      "max": [
        0.9994727969169617,
        1.0
      ],
      "min": [
        0.0005084266886115074,
        0.0006191134452819824
      ],
      "type": "VEC2"
    },
    {
      "bufferView": 1,
      "byteOffset": 14155040,
      "componentType": 5126,
      "count": 65532,
      "max": [
        0.9994727969169617,
        1.0
      ],
      "min": [
        0.0005084266886115074,
        0.0006191134452819824
      ],
      "type": "VEC2"
    },
    {
      "bufferView": 0,
      "byteOffset": 6036432,
      "componentType": 5125,
      "count": 212484,
      "type": "SCALAR"
    },
    {
      "bufferView": 2,
      "byteOffset": 11009472,
      "componentType": 5126,
      "count": 26367,
      "max": [
        0.32095596194267273,
        0.36037299036979675,
        0.1863580346107483
      ],
      "min": [
        -0.3205479681491852,
        -0.9992629885673523,
        -0.02000897191464901
      ],
      "type": "VEC3"
    },
    {
      "bufferView": 2,
      "byteOffset": 11325876,
      "componentType": 5126,
      "count": 26367,
      "max": [
        0.9999878406524658,
        0.9996897578239441,
        0.9999880194664001
      ],
      "min": [
        -0.9999530911445618,
        -0.9999549388885498,
        -0.9994849562644958
      ],
      "type": "VEC3"
    },
    {
      "bufferView": 1,
      "byteOffset": 14679296,
      "componentType": 5126,
      "count": 26367,
      "max": [
        0.9994731545448303,
        1.0
      ],
      "min": [
        1.3620636840627753e-09,
        0.0003260970115661621
      ],
      "type": "VEC2"
    },
    {
      "bufferView": 1,
      "byteOffset": 14890232,
      "componentType": 5126,
      "count": 26367,
      "max": [
        0.9994731545448303,
        1.0
      ],
      "min": [
        1.3620636840627753e-09,
        0.0003260970115661621
      ],
      "type": "VEC2"
    },
    {
      "bufferView": 1,
      "byteOffset": 15101168,
      "componentType": 5126,
      "count": 26367,
      "max": [
        0.9994731545448303,
        1.0
      ],
      "min": [
        1.3620636840627753e-09,
        0.0003260970115661621
      ],
      "type": "VEC2"
    },
    {
      "bufferView": 1,
      "byteOffset": 15312104,
      "componentType": 5126,
      "count": 26367,
      "max": [
        0.9994731545448303,
        1.0
      ],
      "min": [
        1.3620636840627753e-09,
        0.0003260970115661621
      ],
      "type": "VEC2"
    },
    {
      "bufferView": 0,
      "byteOffset": 6886368,
      "componentType": 5125,
      "count": 74256,
      "type": "SCALAR"
    }
  ],
  "asset": {
    "extras": {
      "author": "golden4445etetet (https://sketchfab.com/golden4445etetet)",
      "license": "CC-BY-4.0 (http://creativecommons.org/licenses/by/4.0/)",
      "source": "https://sketchfab.com/3d-models/school-girl-sit-on-a-chair-69c7bb2d1b9441008893cd01f5d1a95c",
      "title": "school Girl sit on a Chair"
    },
    "generator": "Sketchfab-17.1.0",
    "version": "2.0"
  },
  "bufferViews": [
    {
      "buffer": 0,
      "byteLength": 7183392,
      "name": "floatBufferViews",
      "target": 34963
    },
    {
      "buffer": 0,
      "byteLength": 15523040,
      "byteOffset": 7183392,
      "byteStride": 8,
      "name": "floatBufferViews",
      "target": 34962
    },
    {
      "buffer": 0,
      "byteLength": 11642280,
      "byteOffset": 22706432,
      "byteStride": 12,
      "name": "floatBufferViews",
      "target": 34962
    }
  ],
  "buffers": [
    {
      "byteLength": 34348712,
      "uri": "scene.bin"
    }
  ],
  "extensionsRequired": [
    "KHR_materials_pbrSpecularGlossiness"
  ],
  "extensionsUsed": [
    "KHR_materials_pbrSpecularGlossiness"
  ],
  "images": [
    {
      "uri": "textures/material_0_diffuse.jpeg"
    },
    {
      "uri": "textures/material_0_specularGlossiness.png"
    }
  ],
  "materials": [
    {
      "doubleSided": true,
      "extensions": {
        "KHR_materials_pbrSpecularGlossiness": {
          "diffuseFactor": [
            1.0,
            1.0,
            1.0,
            1.0
          ],
          "diffuseTexture": {
            "index": 0
          },
          "glossinessFactor": 1.0,
          "specularFactor": [
            0.041142982530994375,
            0.041142982530994375,
            0.041142982530994375
          ],
          "specularGlossinessTexture": {
            "index": 1
          }
        }
      },
      "name": "material_0"
    }
  ],
  "meshes": [
    {
      "name": "Object_0",
      "primitives": [
        {
          "attributes": {
            "NORMAL": 1,
            "POSITION": 0,
            "TEXCOORD_0": 2,
            "TEXCOORD_1": 3,
            "TEXCOORD_2": 4,
            "TEXCOORD_3": 5
          },
          "indices": 6,
          "material": 0,
          "mode": 4
        }
      ]
    },
    {
      "name": "Object_1",
      "primitives": [
        {
          "attributes": {
            "NORMAL": 8,
            "POSITION": 7,
            "TEXCOORD_0": 9,
            "TEXCOORD_1": 10,
            "TEXCOORD_2": 11,
            "TEXCOORD_3": 12
          },
          "indices": 13,
          "material": 0,
          "mode": 4
        }
      ]
    },
    {
      "name": "Object_2",
      "primitives": [
        {
          "attributes": {
            "NORMAL": 15,
            "POSITION": 14,
            "TEXCOORD_0": 16,
            "TEXCOORD_1": 17,
            "TEXCOORD_2": 18,
            "TEXCOORD_3": 19
          },
          "indices": 20,
          "material": 0,
          "mode": 4
        }
      ]
    },
    {
      "name": "Object_3",
      "primitives": [
        {
          "attributes": {
            "NORMAL": 22,
            "POSITION": 21,
            "TEXCOORD_0": 23,
            "TEXCOORD_1": 24,
            "TEXCOORD_2": 25,
            "TEXCOORD_3": 26
          },
          "indices": 27,
          "material": 0,
          "mode": 4
        }
      ]
    },
    {
      "name": "Object_4",
      "primitives": [
        {
          "attributes": {
            "NORMAL": 29,
            "POSITION": 28,
            "TEXCOORD_0": 30,
            "TEXCOORD_1": 31,
            "TEXCOORD_2": 32,
            "TEXCOORD_3": 33
          },
          "indices": 34,
          "material": 0,
          "mode": 4
        }
      ]
    },
    {
      "name": "Object_5",
      "primitives": [
        {
          "attributes": {
            "NORMAL": 36,
            "POSITION": 35,
            "TEXCOORD_0": 37,
            "TEXCOORD_1": 38,
            "TEXCOORD_2": 39,
            "TEXCOORD_3": 40
          },
          "indices": 41,
          "material": 0,
          "mode": 4
        }
      ]
    },
    {
      "name": "Object_6",
      "primitives": [
        {
          "attributes": {
            "NORMAL": 43,
            "POSITION": 42,
            "TEXCOORD_0": 44,
            "TEXCOORD_1": 45,
            "TEXCOORD_2": 46,
            "TEXCOORD_3": 47
          },
          "indices": 48,
          "material": 0,
          "mode": 4
        }
      ]
    },
    {
      "name": "Object_7",
      "primitives": [
        {
          "attributes": {
            "NORMAL": 50,
            "POSITION": 49,
            "TEXCOORD_0": 51,
            "TEXCOORD_1": 52,
            "TEXCOORD_2": 53,
            "TEXCOORD_3": 54
          },
          "indices": 55,
          "material": 0,
          "mode": 4
        }
      ]
    }
  ],
  "nodes": [
    {
      "children": [
        1
      ],
      "matrix": [
        1.0,
        0.0,
        0.0,
        0.0,
        0.0,
        2.220446049250313e-16,
        -1.0,
        0.0,
        0.0,
        1.0,
        2.220446049250313e-16,
        0.0,
        0.0,
        0.0,
        0.0,
        1.0
      ],
      "name": "Sketchfab_model"
    },
    {
      "children": [
        2
      ],
      "name": "root"
    },
    {
      "children": [
        3
      ],
      "matrix": [
        1.0,
        0.0,
        0.0,
        0.0,
        0.0,
        2.220446049250313e-16,
        1.0,
        0.0,
        0.0,
        -1.0,
        2.220446049250313e-16,
        0.0,
        0.0,
        0.0,
        0.0,
        1.0
      ],
      "name": "GLTF_SceneRootNode"
    },
    {
      "children": [
        4,
        5,
        6,
        7,
        8,
        9,
        10,
        11
      ],
      "name": "_0"
    },
    {
      "mesh": 0,
      "name": "Object_4"
    },
    {
      "mesh": 1,
      "name": "Object_5"
    },
    {
      "mesh": 2,
      "name": "Object_6"
    },
    {
      "mesh": 3,
      "name": "Object_7"
    },
    {
      "mesh": 4,
      "name": "Object_8"
    },
    {
      "mesh": 5,
      "name": "Object_9"
    },
    {
      "mesh": 6,
      "name": "Object_10"
    },
    {
      "mesh": 7,
      "name": "Object_11"
    }
  ],
  "samplers": [
    {
      "magFilter": 9729,
      "minFilter": 9987,
      "wrapS": 10497,
      "wrapT": 10497
    }
  ],
  "scene": 0,
  "scenes": [
    {
      "name": "Sketchfab_Scene",
      "nodes": [
        0
      ]
    }
  ],
  "textures": [
    {
      "sampler": 0,
      "source": 0
    },
    {
      "sampler": 0,
      "source": 1
    }
  ]
}
